<svg xmlns="http://www.w3.org/2000/svg" width="227.3050848416508" height="56" style="background: none;" preserveAspectRatio="xMidYMid"><rect id="backgroundrect" width="100%" height="100%" x="0" y="0" fill="none" stroke="none" class="" style=""/><defs><filter id="editing-hover" x="-100%" y="-100%" width="300%" height="300%"><feFlood flood-color="rgba(49.321644791074405%,77.46711700798198%,86.73016502743675%,0.594)" result="flood"/><feComposite operator="in" in2="SourceAlpha" in="flood" result="shadow"/><feOffset dx="-4" dy="-4" in="SourceGraphic" result="offset-1"/><feOffset dx="4" dy="4" in="shadow" result="offset-2"/><feMerge><feMergeNode in="offset-2"/><feMergeNode in="offset-1"/></feMerge></filter></defs><style>text {
  font-size: 64px;
  font-family: Arial Black;
  dominant-baseline: central;
  text-anchor: middle;
}</style><g class="currentLayer" style=""><title>Layer 1</title><g filter="url(#editing-hover)" id="svg_1" class=""><g id="svg_2"><path d="M29.706868896484366,26.790005340576172 L42.63686889648437,25.640005340576167 L42.63686889648437,25.640005340576167 Q38.02686889648436,35.750005340576166 38.02686889648436,47.460005340576174 L38.02686889648436,47.460005340576174 L38.02686889648436,47.460005340576174 Q36.29686889648437,48.68000534057617 33.76686889648437,48.68000534057617 L33.76686889648437,48.68000534057617 L33.76686889648437,48.68000534057617 Q31.236868896484367,48.68000534057617 29.636868896484373,47.500005340576166 L29.636868896484373,47.500005340576166 L29.636868896484373,47.500005340576166 Q28.03686889648438,46.31000534057617 27.716868896484385,45.100005340576175 L27.716868896484385,45.100005340576175 L27.716868896484385,45.100005340576175 Q26.11686889648439,46.76000534057617 23.52686889648436,47.720005340576165 L23.52686889648436,47.720005340576165 L23.52686889648436,47.720005340576165 Q20.936868896484384,48.68000534057617 18.186868896484384,48.68000534057617 L18.186868896484384,48.68000534057617 L18.186868896484384,48.68000534057617 Q15.436868896484384,48.68000534057617 13.036868896484378,47.78000534057617 L13.036868896484378,47.78000534057617 L13.036868896484378,47.78000534057617 Q10.636868896484373,46.89000534057617 8.776868896484388,44.90000534057617 L8.776868896484388,44.90000534057617 L8.776868896484388,44.90000534057617 Q4.676868896484365,40.55000534057618 4.676868896484365,32.30000534057618 L4.676868896484365,32.30000534057618 L4.676868896484365,32.30000534057618 Q4.676868896484365,19.500005340576166 11.526868896484388,11.820005340576174 L11.526868896484388,11.820005340576174 L11.526868896484388,11.820005340576174 Q18.56686889648438,3.8800053405761687 31.04686889648437,3.8800053405761687 L31.04686889648437,3.8800053405761687 L31.04686889648437,3.8800053405761687 Q39.686868896484384,3.8800053405761687 42.75686889648438,8.360005340576173 L42.75686889648438,8.360005340576173 L42.75686889648438,8.360005340576173 Q43.716868896484385,9.77000534057617 43.716868896484385,11.460005340576174 L43.716868896484385,11.460005340576174 L43.716868896484385,11.460005340576174 Q43.716868896484385,13.16000534057617 42.98686889648437,14.600005340576175 L42.98686889648437,14.600005340576175 L42.98686889648437,14.600005340576175 Q42.246868896484386,16.040005340576172 41.09686889648438,17.190005340576164 L41.09686889648438,17.190005340576164 L41.09686889648438,17.190005340576164 Q38.34686889648438,19.750005340576166 34.956868896484366,19.750005340576166 L34.956868896484366,19.750005340576166 L34.956868896484366,19.750005340576166 Q33.60686889648437,19.750005340576166 32.32686889648437,19.300005340576178 L32.32686889648437,19.300005340576178 L32.32686889648437,19.300005340576178 Q32.58686889648436,17.380005340576176 32.58686889648436,15.140005340576181 L32.58686889648436,15.140005340576181 L32.58686889648436,15.140005340576181 Q32.58686889648436,12.900005340576172 32.426868896484365,11.880005340576169 L32.426868896484365,11.880005340576169 L32.426868896484365,11.880005340576169 Q32.26686889648437,10.860005340576173 31.876868896484382,10.02000534057617 L31.876868896484382,10.02000534057617 L31.876868896484382,10.02000534057617 Q31.04686889648437,8.30000534057617 29.226868896484376,8.30000534057617 L29.226868896484376,8.30000534057617 L29.226868896484376,8.30000534057617 Q27.396868896484364,8.30000534057617 25.386868896484373,10.250005340576173 L25.386868896484373,10.250005340576173 L25.386868896484373,10.250005340576173 Q23.36686889648439,12.200005340576169 21.766868896484368,15.400005340576172 L21.766868896484368,15.400005340576172 L21.766868896484368,15.400005340576172 Q18.246868896484386,22.570005340576174 18.246868896484386,31.210005340576174 L18.246868896484386,31.210005340576174 L18.246868896484386,31.210005340576174 Q18.246868896484386,35.18000534057617 19.78686889648438,37.990005340576175 L19.78686889648438,37.990005340576175 L19.78686889648438,37.990005340576175 Q21.446868896484375,41.06000534057617 24.396868896484364,41.06000534057617 L24.396868896484364,41.06000534057617 L24.396868896484364,41.06000534057617 Q25.416868896484374,41.06000534057617 26.34686889648438,40.55000534057618 L26.34686889648438,40.55000534057618 L26.34686889648438,40.55000534057618 Q27.27686889648436,40.04000534057617 27.656868896484383,39.66000534057618 L27.656868896484383,39.66000534057618 L29.706868896484366,26.790005340576172 zM59.716868896484385,48.68000534057617 L59.716868896484385,48.68000534057617 L59.716868896484385,48.68000534057617 Q45.63686889648437,48.68000534057617 45.63686889648437,35.43000534057617 L45.63686889648437,35.43000534057617 L45.63686889648437,35.43000534057617 Q45.63686889648437,26.020005340576176 50.82686889648437,19.940005340576164 L50.82686889648437,19.940005340576164 L50.82686889648437,19.940005340576164 Q56.32686889648437,13.48000534057617 65.86686889648439,13.48000534057617 L65.86686889648439,13.48000534057617 L65.86686889648439,13.48000534057617 Q72.77686889648436,13.48000534057617 76.29686889648437,16.680005340576173 L76.29686889648437,16.680005340576173 L76.29686889648437,16.680005340576173 Q79.81686889648438,19.880005340576176 79.81686889648438,26.600005340576175 L79.81686889648438,26.600005340576175 L79.81686889648438,26.600005340576175 Q79.81686889648438,36.84000534057617 74.31686889648438,42.79000534057617 L74.31686889648438,42.79000534057617 L74.31686889648438,42.79000534057617 Q68.93686889648438,48.68000534057617 59.716868896484385,48.68000534057617 zM61.38686889648437,20.84000534057617 L61.38686889648437,20.84000534057617 L61.38686889648437,20.84000534057617 Q60.61686889648439,22.570005340576174 60.00686889648438,25.160005340576177 L60.00686889648438,25.160005340576177 L60.00686889648438,25.160005340576177 Q59.396868896484364,27.750005340576166 58.63686889648437,31.850005340576175 L58.63686889648437,31.850005340576175 L58.63686889648437,31.850005340576175 Q57.86686889648439,35.940005340576164 57.86686889648439,41.000005340576166 L57.86686889648439,41.000005340576166 L57.86686889648439,41.000005340576166 Q57.86686889648439,42.66000534057618 58.40686889648438,43.750005340576166 L58.40686889648438,43.750005340576166 L58.40686889648438,43.750005340576166 Q58.956868896484366,44.84000534057617 60.426868896484365,44.84000534057617 L60.426868896484365,44.84000534057617 L60.426868896484365,44.84000534057617 Q61.896868896484364,44.84000534057617 62.82686889648437,44.14000534057617 L62.82686889648437,44.14000534057617 L62.82686889648437,44.14000534057617 Q63.75686889648438,43.43000534057617 64.45686889648437,41.770005340576176 L64.45686889648437,41.770005340576176 L64.45686889648437,41.770005340576176 Q65.73686889648437,38.820005340576174 66.75686889648438,33.350005340576175 L66.75686889648438,33.350005340576175 L66.75686889648438,33.350005340576175 Q67.78686889648438,27.880005340576176 67.87686889648438,25.51000534057617 L67.87686889648438,25.51000534057617 L67.87686889648438,25.51000534057617 Q67.97686889648438,23.140005340576167 67.97686889648438,21.380005340576176 L67.97686889648438,21.380005340576176 L67.97686889648438,21.380005340576176 Q67.97686889648438,19.62000534057617 67.46686889648436,18.470005340576165 L67.46686889648436,18.470005340576165 L67.46686889648436,18.470005340576165 Q66.95686889648437,17.320005340576174 65.51686889648437,17.320005340576174 L65.51686889648437,17.320005340576174 L65.51686889648437,17.320005340576174 Q64.07686889648437,17.320005340576174 63.11686889648439,18.220005340576165 L63.11686889648439,18.220005340576165 L63.11686889648439,18.220005340576165 Q62.15686889648438,19.11000534057618 61.38686889648437,20.84000534057617 zM89.03686889648438,47.40000534057617 L81.6768688964844,47.40000534057617 L93.25686889648438,5.16000534057617 L106.63686889648437,5.16000534057617 L109.57686889648437,29.290005340576172 L121.47686889648435,5.16000534057617 L132.6768688964844,5.16000534057617 L133.83686889648436,36.78000534057617 L133.83686889648436,36.78000534057617 Q134.08686889648436,43.05000534057618 137.1568688964844,44.970005340576165 L137.1568688964844,44.970005340576165 L137.1568688964844,44.970005340576165 Q136.45686889648437,46.250005340576166 134.4068688964844,47.460005340576174 L134.4068688964844,47.460005340576174 L134.4068688964844,47.460005340576174 Q132.35686889648434,48.68000534057617 129.63686889648437,48.68000534057617 L129.63686889648437,48.68000534057617 L129.63686889648437,48.68000534057617 Q126.9168688964844,48.68000534057617 125.31686889648438,47.91000534057618 L125.31686889648438,47.91000534057618 L125.31686889648438,47.91000534057618 Q123.71686889648436,47.14000534057617 122.82686889648437,45.860005340576166 L122.82686889648437,45.860005340576166 L122.82686889648437,45.860005340576166 Q121.22686889648435,43.56000534057617 121.22686889648435,39.14000534057617 L121.22686889648435,39.14000534057617 L121.22686889648435,19.37000534057617 L108.61686889648439,47.40000534057617 L100.6768688964844,47.40000534057617 L96.19686889648438,18.660005340576177 L89.03686889648438,47.40000534057617 zM142.69686889648438,45.48000534057617 L142.69686889648438,45.48000534057617 L142.69686889648438,45.48000534057617 Q141.19686889648438,43.820005340576174 140.51686889648437,41.19000534057618 L140.51686889648437,41.19000534057618 L140.51686889648437,41.19000534057618 Q139.84686889648435,38.570005340576174 139.84686889648435,34.28000534057617 L139.84686889648435,34.28000534057617 L139.84686889648435,34.28000534057617 Q139.84686889648435,29.990005340576175 141.31686889648438,26.09000534057617 L141.31686889648438,26.09000534057617 L141.31686889648438,26.09000534057617 Q142.7968688964844,22.180005340576173 145.47686889648435,19.37000534057617 L145.47686889648435,19.37000534057617 L145.47686889648435,19.37000534057617 Q150.98686889648434,13.48000534057617 160.07686889648437,13.48000534057617 L160.07686889648437,13.48000534057617 L160.07686889648437,13.48000534057617 Q163.33686889648436,13.48000534057617 165.70686889648437,14.570005340576174 L165.70686889648437,14.570005340576174 L176.64686889648436,13.48000534057617 L171.9168688964844,38.440005340576164 L171.9168688964844,38.440005340576164 Q171.71686889648436,39.210005340576174 171.71686889648436,40.62000534057617 L171.71686889648436,40.62000534057617 L171.71686889648436,40.62000534057617 Q171.71686889648436,42.020005340576176 172.58686889648436,42.92000534057617 L172.58686889648436,42.92000534057617 L172.58686889648436,42.92000534057617 Q173.44686889648438,43.820005340576174 174.72686889648435,43.94000534057618 L174.72686889648435,43.94000534057618 L174.72686889648435,43.94000534057618 Q174.08686889648436,46.12000534057617 171.75686889648438,47.40000534057617 L171.75686889648438,47.40000534057617 L171.75686889648438,47.40000534057617 Q169.4168688964844,48.68000534057617 166.7968688964844,48.68000534057617 L166.7968688964844,48.68000534057617 L166.7968688964844,48.68000534057617 Q164.1668688964844,48.68000534057617 162.4068688964844,47.69000534057618 L162.4068688964844,47.69000534057618 L162.4068688964844,47.69000534057618 Q160.64686889648436,46.70000534057617 160.13686889648437,45.03000534057617 L160.13686889648437,45.03000534057617 L160.13686889648437,45.03000534057617 Q159.11686889648433,46.630005340576176 156.93686889648438,47.66000534057618 L156.93686889648438,47.66000534057618 L156.93686889648438,47.66000534057618 Q154.75686889648438,48.68000534057617 151.84686889648435,48.68000534057617 L151.84686889648435,48.68000534057617 L151.84686889648435,48.68000534057617 Q148.93686889648438,48.68000534057617 146.56686889648438,47.91000534057618 L146.56686889648438,47.91000534057618 L146.56686889648438,47.91000534057618 Q144.19686889648438,47.14000534057617 142.69686889648438,45.48000534057617 zM156.19686889648438,19.500005340576166 L156.19686889648438,19.500005340576166 L156.19686889648438,19.500005340576166 Q155.46686889648436,20.650005340576172 154.82686889648437,22.600005340576175 L154.82686889648437,22.600005340576175 L154.82686889648437,22.600005340576175 Q154.18686889648444,24.550005340576178 153.12686889648438,29.770005340576176 L153.12686889648438,29.770005340576176 L153.12686889648438,29.770005340576176 Q152.07686889648437,34.98000534057617 152.07686889648437,38.70000534057617 L152.07686889648437,38.70000534057617 L152.07686889648437,38.70000534057617 Q152.07686889648437,42.41000534057618 152.64686889648436,43.500005340576166 L152.64686889648436,43.500005340576166 L152.64686889648436,43.500005340576166 Q153.22686889648435,44.58000534057618 154.2468688964844,44.58000534057618 L154.2468688964844,44.58000534057618 L154.2468688964844,44.58000534057618 Q156.2968688964844,44.58000534057618 157.7968688964844,42.630005340576176 L157.7968688964844,42.630005340576176 L157.7968688964844,42.630005340576176 Q159.3068688964844,40.68000534057617 159.87686889648438,37.220005340576165 L159.87686889648438,37.220005340576165 L163.27686889648442,18.470005340576165 L163.27686889648442,18.470005340576165 Q161.9268688964844,17.320005340576174 160.35686889648434,17.320005340576174 L160.35686889648434,17.320005340576174 L160.35686889648434,17.320005340576174 Q158.7968688964844,17.320005340576174 157.86686889648433,17.83000534057618 L157.86686889648433,17.83000534057618 L157.86686889648433,17.83000534057618 Q156.93686889648438,18.34000534057617 156.19686889648438,19.500005340576166 zM193.22686889648435,47.40000534057617 L179.52686889648442,47.40000534057617 L187.33686889648436,5.350005340576175 L187.33686889648436,5.350005340576175 Q193.6768688964844,4.650005340576172 202.9168688964844,4.650005340576172 L202.9168688964844,4.650005340576172 L202.9168688964844,4.650005340576172 Q212.1668688964844,4.650005340576172 216.45686889648437,7.34000534057617 L216.45686889648437,7.34000534057617 L216.45686889648437,7.34000534057617 Q220.7468688964844,10.02000534057617 220.7468688964844,15.430005340576173 L220.7468688964844,15.430005340576173 L220.7468688964844,15.430005340576173 Q220.7468688964844,20.84000534057617 217.95686889648437,24.23000534057617 L217.95686889648437,24.23000534057617 L217.95686889648437,24.23000534057617 Q215.1768688964844,27.62000534057617 210.37686889648438,28.710005340576174 L210.37686889648438,28.710005340576174 L210.37686889648438,28.710005340576174 Q211.46686889648436,34.020005340576176 213.95686889648437,38.31000534057617 L213.95686889648437,38.31000534057617 L213.95686889648437,38.31000534057617 Q216.26686889648437,42.34000534057617 218.95686889648437,43.62000534057617 L218.95686889648437,43.62000534057617 L218.95686889648437,43.62000534057617 Q217.9968688964844,46.31000534057617 216.0368688964844,47.500005340576166 L216.0368688964844,47.500005340576166 L216.0368688964844,47.500005340576166 Q214.08686889648436,48.68000534057617 211.3068688964844,48.68000534057617 L211.3068688964844,48.68000534057617 L211.3068688964844,48.68000534057617 Q208.51686889648437,48.68000534057617 206.34686889648435,47.05000534057618 L206.34686889648435,47.05000534057618 L206.34686889648435,47.05000534057618 Q204.1668688964844,45.42000534057617 202.43686889648444,42.41000534057618 L202.43686889648444,42.41000534057618 L202.43686889648444,42.41000534057618 Q198.7968688964844,35.880005340576176 198.4068688964844,25.58000534057618 L198.4068688964844,25.58000534057618 L198.85686889648434,25.58000534057618 L198.85686889648434,25.58000534057618 Q203.59686889648435,25.45000534057617 205.95686889648437,22.98000534057617 L205.95686889648437,22.98000534057617 L205.95686889648437,22.98000534057617 Q208.32686889648437,20.520005340576176 208.32686889648437,15.34000534057617 L208.32686889648437,15.34000534057617 L208.32686889648437,15.34000534057617 Q208.32686889648437,8.87000534057617 202.88686889648437,8.62000534057617 L202.88686889648437,8.62000534057617 L201.47686889648435,8.62000534057617 L201.47686889648435,8.62000534057617 Q200.9068688964844,8.62000534057617 200.58686889648436,8.680005340576173 L200.58686889648436,8.680005340576173 L193.22686889648435,47.40000534057617 z" fill="#ffffff" id="svg_3"/></g></g></g></svg>