<svg xmlns="http://www.w3.org/2000/svg" width="209.66101809980796" height="51.35593325815739" style="background: none;" preserveAspectRatio="xMidYMid"><rect id="backgroundrect" width="100%" height="100%" x="0" y="0" fill="none" stroke="none" class="" style=""/><defs><filter id="editing-hover" x="-100%" y="-100%" width="300%" height="300%"><feFlood flood-color="#052b4a" result="flood"/><feComposite operator="in" in2="SourceAlpha" in="flood" result="shadow"/><feOffset dx="-4" dy="-4" in="SourceGraphic" result="offset-1"/><feOffset dx="4" dy="4" in="shadow" result="offset-2"/><feMerge><feMergeNode in="offset-2"/><feMergeNode in="offset-1"/></feMerge></filter></defs><style>text {
  font-size: 64px;
  font-family: Arial Black;
  dominant-baseline: central;
  text-anchor: middle;
}</style><g class="currentLayer" style=""><title>Layer 1</title><g filter="url(#editing-hover)" id="svg_1" class=""><g id="svg_2"><path d="M27.38684754385529,26.31490997787637 L39.55614760412751,25.273515163541646 L39.55614760412751,25.273515163541646 Q35.21736390127716,34.428733922606035 35.21736390127716,45.032849814657865 L35.21736390127716,45.032849814657865 L35.21736390127716,45.032849814657865 Q33.58914355291901,46.137633878560784 31.20798893942414,46.137633878560784 L31.20798893942414,46.137633878560784 L31.20798893942414,46.137633878560784 Q28.826834325929262,46.137633878560784 27.32096579565583,45.06907224298255 L27.32096579565583,45.06907224298255 L27.32096579565583,45.06907224298255 Q25.8150972653824,43.99145500032314 25.513923559327722,42.89572654350139 L25.513923559327722,42.89572654350139 L25.513923559327722,42.89572654350139 Q24.008055029054283,44.39895731897586 21.570430345674133,45.26829559876832 L21.570430345674133,45.26829559876832 L21.570430345674133,45.26829559876832 Q19.132805662294025,46.137633878560784 16.544594125886555,46.137633878560784 L16.544594125886555,46.137633878560784 L16.544594125886555,46.137633878560784 Q13.956382589479084,46.137633878560784 11.697579794068922,45.32262924125535 L11.697579794068922,45.32262924125535 L11.697579794068922,45.32262924125535 Q9.43877699865876,44.51668021103109 7.688204832215906,42.71461440187796 L7.688204832215906,42.71461440187796 L7.688204832215906,42.71461440187796 Q3.8294167233901995,38.775425321568356 3.8294167233901995,31.304549479601867 L3.8294167233901995,31.304549479601867 L3.8294167233901995,31.304549479601867 Q3.8294167233901995,19.713372415702338 10.276416368623376,12.758666177362635 L10.276416368623376,12.758666177362635 L10.276416368623376,12.758666177362635 Q16.902237901826496,5.568514154912457 28.648012437959295,5.568514154912457 L28.648012437959295,5.568514154912457 L28.648012437959295,5.568514154912457 Q36.77970250143587,5.568514154912457 39.669087743898025,9.625426127277294 L39.669087743898025,9.625426127277294 L39.669087743898025,9.625426127277294 Q40.5726088620621,10.902266725722473 40.5726088620621,12.43266432244046 L40.5726088620621,12.43266432244046 L40.5726088620621,12.43266432244046 Q40.5726088620621,13.972117526239611 39.88555634512482,15.276124945928313 L39.88555634512482,15.276124945928313 L39.88555634512482,15.276124945928313 Q39.189092149873375,16.580132365617008 38.106749143739336,17.62152717995172 L38.106749143739336,17.62152717995172 L38.106749143739336,17.62152717995172 Q35.518537607331865,19.939762592731626 32.327978658815006,19.939762592731626 L32.327978658815006,19.939762592731626 L32.327978658815006,19.939762592731626 Q31.0574020863968,19.939762592731626 29.852707262178043,19.532260274078922 L29.852707262178043,19.532260274078922 L29.852707262178043,19.532260274078922 Q30.09741089834747,17.79358371449399 30.09741089834747,15.76512772831158 L30.09741089834747,15.76512772831158 L30.09741089834747,15.76512772831158 Q30.09741089834747,13.736671742129154 29.946824045320128,12.812999819849658 L29.946824045320128,12.812999819849658 L29.946824045320128,12.812999819849658 Q29.796237192292793,11.889327897570169 29.42918173803865,11.12865690275176 L29.42918173803865,11.12865690275176 L29.42918173803865,11.12865690275176 Q28.648012437959295,9.571092484790263 26.935086984773264,9.571092484790263 L26.935086984773264,9.571092484790263 L26.935086984773264,9.571092484790263 Q25.21274985327301,9.571092484790263 23.321002512117012,11.336935865618706 L23.321002512117012,11.336935865618706 L23.321002512117012,11.336935865618706 Q21.419843492646812,13.102779246447145 19.91397496237336,16.00057351242203 L19.91397496237336,16.00057351242203 L19.91397496237336,16.00057351242203 Q16.601064195771812,22.493443789621992 16.601064195771812,30.317488307754175 L16.601064195771812,30.317488307754175 L16.601064195771812,30.317488307754175 Q16.601064195771812,33.91256431897926 18.050462656159986,36.45718990878845 L18.050462656159986,36.45718990878845 L18.050462656159986,36.45718990878845 Q19.612801256318676,39.237261282708104 22.389246359010315,39.237261282708104 L22.389246359010315,39.237261282708104 L22.389246359010315,39.237261282708104 Q23.349237547059644,39.237261282708104 24.224523630281084,38.775425321568356 L24.224523630281084,38.775425321568356 L24.224523630281084,38.775425321568356 Q25.099809713502502,38.31358936042861 25.457453489442464,37.969476291344094 L25.457453489442464,37.969476291344094 L27.38684754385529,26.31490997787637 zM55.63129416479647,46.137633878560784 L55.63129416479647,46.137633878560784 L55.63129416479647,46.137633878560784 Q42.379651098390205,46.137633878560784 42.379651098390205,34.138954496008544 L42.379651098390205,34.138954496008544 L42.379651098390205,34.138954496008544 Q42.379651098390205,25.617628232626167 47.264312143464664,20.11181912727389 L47.264312143464664,20.11181912727389 L47.264312143464664,20.11181912727389 Q52.440735216279606,14.261896952837098 61.419476328035,14.261896952837098 L61.419476328035,14.261896952837098 L61.419476328035,14.261896952837098 Q67.92294604315337,14.261896952837098 71.23585680975495,17.159691218811982 L71.23585680975495,17.159691218811982 L71.23585680975495,17.159691218811982 Q74.54876757635652,20.057485484786866 74.54876757635652,26.14285344333411 L74.54876757635652,26.14285344333411 L74.54876757635652,26.14285344333411 Q74.54876757635652,35.41579509445373 69.37234450354158,40.80388130775077 L69.37234450354158,40.80388130775077 L69.37234450354158,40.80388130775077 Q64.30886157049716,46.137633878560784 55.63129416479647,46.137633878560784 zM57.20304444326936,20.926823764579325 L57.20304444326936,20.926823764579325 L57.20304444326936,20.926823764579325 Q56.478345213075286,22.493443789621992 55.904232835908516,24.838846023645416 L55.904232835908516,24.838846023645416 L55.904232835908516,24.838846023645416 Q55.33012045874176,27.184248257668834 54.61483290686189,30.89704716094915 L54.61483290686189,30.89704716094915 L54.61483290686189,30.89704716094915 Q53.890133676667816,34.60079045714829 53.890133676667816,39.182927640221074 L53.890133676667816,39.182927640221074 L53.890133676667816,39.182927640221074 Q53.890133676667816,40.686158415695544 54.398364305635084,41.67321958754324 L54.398364305635084,41.67321958754324 L54.398364305635084,41.67321958754324 Q54.91600661291656,42.66028075939093 56.299523325105284,42.66028075939093 L56.299523325105284,42.66028075939093 L56.299523325105284,42.66028075939093 Q57.683040037294006,42.66028075939093 58.558326120515446,42.026388263708924 L58.558326120515446,42.026388263708924 L58.558326120515446,42.026388263708924 Q59.433612203736885,41.383440160945746 60.0924296857315,39.88020938547128 L60.0924296857315,39.88020938547128 L60.0924296857315,39.88020938547128 Q61.297124509950265,37.20880529652568 62.25711569799958,32.255388223124875 L62.25711569799958,32.255388223124875 L62.25711569799958,32.255388223124875 Q63.22651856436312,27.30197114972406 63.311223669190994,25.15579227148642 L63.311223669190994,25.15579227148642 L63.311223669190994,25.15579227148642 Q63.40534045233308,23.00961339324877 63.40534045233308,21.415826546962585 L63.40534045233308,21.415826546962585 L63.40534045233308,21.415826546962585 Q63.40534045233308,19.8220397006764 62.92534485830841,18.780644886341676 L62.92534485830841,18.780644886341676 L62.92534485830841,18.780644886341676 Q62.44534926428375,17.73925007200696 61.090067587037666,17.73925007200696 L61.090067587037666,17.73925007200696 L61.090067587037666,17.73925007200696 Q59.73478590979157,17.73925007200696 58.83126479162753,18.55425470931239 L58.83126479162753,18.55425470931239 L58.83126479162753,18.55425470931239 Q57.92774367346345,19.360203739536672 57.20304444326936,20.926823764579325 zM83.22633498205721,44.97851617217084 L76.2993397427994,44.97851617217084 L87.19806323065339,6.7276318613024095 L99.79088881506502,6.7276318613024095 L102.55792223944245,28.578811748169244 L113.75781943335113,6.7276318613024095 L124.29889914526524,6.7276318613024095 L125.39065382971344,35.3614614519667 L125.39065382971344,35.3614614519667 Q125.62594578756867,41.03932709186123 128.51533103003086,42.778003651446156 L128.51533103003086,42.778003651446156 L128.51533103003086,42.778003651446156 Q127.85651354803619,43.93712135783611 125.9271194936234,45.032849814657865 L125.9271194936234,45.032849814657865 L125.9271194936234,45.032849814657865 Q123.99772543921048,46.137633878560784 121.43774893774568,46.137633878560784 L121.43774893774568,46.137633878560784 L121.43774893774568,46.137633878560784 Q118.87777243628085,46.137633878560784 117.37190390600739,45.44035213331059 L117.37190390600739,45.44035213331059 L117.37190390600739,45.44035213331059 Q115.86603537573393,44.743070388060374 115.02839600576937,43.58395268167042 L115.02839600576937,43.58395268167042 L115.02839600576937,43.58395268167042 Q113.5225274754959,41.50116305300098 113.5225274754959,37.49858472312317 L113.5225274754959,37.49858472312317 L113.5225274754959,19.59564952364711 L101.65440112127841,44.97851617217084 L94.18152853979647,44.97851617217084 L89.96509665503083,18.95270142088394 L83.22633498205721,44.97851617217084 zM133.7294008161026,43.239839612585904 L133.7294008161026,43.239839612585904 L133.7294008161026,43.239839612585904 Q132.31764906897126,41.73660883711143 131.67765494360503,39.35498417476334 L131.67765494360503,39.35498417476334 L131.67765494360503,39.35498417476334 Q131.04707249655303,36.982415119496395 131.04707249655303,33.09755968167382 L131.04707249655303,33.09755968167382 L131.04707249655303,33.09755968167382 Q131.04707249655303,29.21270424385125 132.43058920874176,25.681017482194363 L132.43058920874176,25.681017482194363 L132.43058920874176,25.681017482194363 Q133.82351759924472,22.140275113456305 136.3458473874527,19.59564952364711 L136.3458473874527,19.59564952364711 L136.3458473874527,19.59564952364711 Q141.53168213858183,14.261896952837098 150.08689772619783,14.261896952837098 L150.08689772619783,14.261896952837098 L150.08689772619783,14.261896952837098 Q153.15510485662995,14.261896952837098 155.38567261709747,15.248958124684798 L155.38567261709747,15.248958124684798 L165.6820486928421,14.261896952837098 L161.23032485022128,36.86469222744117 L161.23032485022128,36.86469222744117 Q161.04209128393705,37.561973972691376 161.04209128393705,38.83881457113655 L161.04209128393705,38.83881457113655 L161.04209128393705,38.83881457113655 Q161.04209128393705,40.10659956250057 161.86090729727326,40.921604199806 L161.86090729727326,40.921604199806 L161.86090729727326,40.921604199806 Q162.67031163229524,41.73660883711143 163.87500645651397,41.8452761220855 L163.87500645651397,41.8452761220855 L163.87500645651397,41.8452761220855 Q163.2726590444046,43.81939846578088 161.07973799719392,44.97851617217084 L161.07973799719392,44.97851617217084 L161.07973799719392,44.97851617217084 Q158.87740527166903,46.137633878560784 156.4115455533463,46.137633878560784 L156.4115455533463,46.137633878560784 L156.4115455533463,46.137633878560784 Q153.93627415670932,46.137633878560784 152.27981877340855,45.241128777524814 L152.27981877340855,45.241128777524814 L152.27981877340855,45.241128777524814 Q150.62336339010773,44.34462367648883 150.14336779608308,42.832337293933186 L150.14336779608308,42.832337293933186 L150.14336779608308,42.832337293933186 Q149.1833766080337,44.281234426920626 147.13163073553622,45.213961956281295 L147.13163073553622,45.213961956281295 L147.13163073553622,45.213961956281295 Q145.07988486303864,46.137633878560784 142.3410864736038,46.137633878560784 L142.3410864736038,46.137633878560784 L142.3410864736038,46.137633878560784 Q139.60228808416903,46.137633878560784 137.37172032370148,45.44035213331059 L137.37172032370148,45.44035213331059 L137.37172032370148,45.44035213331059 Q135.14115256323396,44.743070388060374 133.7294008161026,43.239839612585904 zM146.43516654028474,19.713372415702338 L146.43516654028474,19.713372415702338 L146.43516654028474,19.713372415702338 Q145.74811402334745,20.754767230037075 145.14576661123812,22.52061061086551 L145.14576661123812,22.52061061086551 L145.14576661123812,22.52061061086551 Q144.5434191991288,24.286453991693953 143.5457812978226,29.01348088806548 L143.5457812978226,29.01348088806548 L143.5457812978226,29.01348088806548 Q142.55755507483065,33.73145217735583 142.55755507483065,37.10013801155163 L142.55755507483065,37.10013801155163 L142.55755507483065,37.10013801155163 Q142.55755507483065,40.45976823866626 143.09402073874054,41.44682941051395 L143.09402073874054,41.44682941051395 L143.09402073874054,41.44682941051395 Q143.63989808096466,42.424834975280476 144.599889269014,42.424834975280476 L144.599889269014,42.424834975280476 L144.599889269014,42.424834975280476 Q146.52928332342685,42.424834975280476 147.9410350705582,40.658991594452026 L147.9410350705582,40.658991594452026 L147.9410350705582,40.658991594452026 Q149.36219849600374,38.89314821362359 149.89866415991366,35.75990816353824 L149.89866415991366,35.75990816353824 L153.09863478674475,18.780644886341676 L153.09863478674475,18.780644886341676 Q151.82805821432652,17.73925007200696 150.35042471899564,17.73925007200696 L150.35042471899564,17.73925007200696 L150.35042471899564,17.73925007200696 Q148.8822029019791,17.73925007200696 148.0069168187576,18.20108603314671 L148.0069168187576,18.20108603314671 L148.0069168187576,18.20108603314671 Q147.13163073553622,18.66292199428645 146.43516654028474,19.713372415702338 zM181.2866113378006,44.97851617217084 L168.39261204733435,44.97851617217084 L175.7431328107315,6.899688395844674 L175.7431328107315,6.899688395844674 Q181.71013686194004,6.265795900162665 190.40652762426913,6.265795900162665 L190.40652762426913,6.265795900162665 L190.40652762426913,6.265795900162665 Q199.11233006491244,6.265795900162665 203.14994006170807,8.701754204997798 L203.14994006170807,8.701754204997798 L203.14994006170807,8.701754204997798 Q207.18755005850375,11.12865690275176 207.18755005850375,16.027740333665548 L207.18755005850375,16.027740333665548 L207.18755005850375,16.027740333665548 Q207.18755005850375,20.926823764579325 204.5616918088394,23.996674565096463 L204.5616918088394,23.996674565096463 L204.5616918088394,23.996674565096463 Q201.94524523748936,27.0665253656136 197.42763964666904,28.0535865374613 L197.42763964666904,28.0535865374613 L197.42763964666904,28.0535865374613 Q198.45351258291777,32.86211389756337 200.79702048315582,36.74696933538594 L200.79702048315582,36.74696933538594 L200.79702048315582,36.74696933538594 Q202.9711181737381,40.396378989098054 205.5028596402603,41.555496695488 L205.5028596402603,41.555496695488 L205.5028596402603,41.555496695488 Q204.59933852209628,43.99145500032314 202.75464957251134,45.06907224298255 L202.75464957251134,45.06907224298255 L202.75464957251134,45.06907224298255 Q200.91937230124054,46.137633878560784 198.30292572989046,46.137633878560784 L198.30292572989046,46.137633878560784 L198.30292572989046,46.137633878560784 Q195.67706748022613,46.137633878560784 193.63473328604277,44.66156992432983 L193.63473328604277,44.66156992432983 L193.63473328604277,44.66156992432983 Q191.58298741354525,43.18550597009887 189.95476706518716,40.45976823866626 L189.95476706518716,40.45976823866626 L189.95476706518716,40.45976823866626 Q186.52891615881504,34.54645681466126 186.1618607045609,25.219181521054622 L186.1618607045609,25.219181521054622 L186.58538622870023,25.219181521054622 L186.58538622870023,25.219181521054622 Q191.0465217496353,25.10145862899939 193.26767783178863,22.864723679950032 L193.26767783178863,22.864723679950032 L193.26767783178863,22.864723679950032 Q195.49824559225618,20.63704433798185 195.49824559225618,15.946239869934999 L195.49824559225618,15.946239869934999 L195.49824559225618,15.946239869934999 Q195.49824559225618,10.087262088417038 190.3782925893265,9.86087191138775 L190.3782925893265,9.86087191138775 L189.051245947023,9.86087191138775 L189.051245947023,9.86087191138775 Q188.51478028311314,9.86087191138775 188.2136065770584,9.915205553874781 L188.2136065770584,9.915205553874781 L181.2866113378006,44.97851617217084 z" fill="#ffd5af" id="svg_3"/></g></g></g></svg>